_________________________  Visit us at _________________________
  
http://p2pdl.com  ____________________________  http://p2pdl.com


Lost Highway 1997 BRRip 720p x264 AAC - PRiSTiNE

Genre: Drama | Mystery | Thriller
Plot: After a bizarre encounter at a party, a jazz 
saxophonist is framed for the murder of his wife 
and sent to prison, where he inexplicably morphs 
into a young mechanic and begins leading a new life.
Director: David Lynch
Stars: Bill Pullman, Patricia Arquette, John Roselius
Rated: Rated R for bizarre violent and sexual content, and for strong language

Info: 
http://www.imdb.com/title/tt0116922/

General
Complete name                  : Lost Highway 1997 BRRip 720p x264 AAC - PRiSTiNE.mp4
Format                         : MPEG-4
Format profile                 : Base Media
Codec ID                       : isom
File size                      : 750 MiB
Duration                       : 2h 14mn
Overall bit rate mode          : Variable
Overall bit rate               : 782 Kbps

Source                         : 720p BluRay HighCode (Thanks)

Video
Format                         : AVC
Format/Info                    : Advanced Video Codec
Format profile                 : High@L4.1
Format settings, CABAC         : Yes
Bit rate                       : 699 Kbps
Width                          : 1 280 pixels
Height                         : 544 pixels
Display aspect ratio           : 2.35:1
Frame rate mode                : Constant
Frame rate                     : 24.000 fps
Bit depth                      : 8 bits
Stream size                    : 671 MiB (89%)
Writing library                : x264 core 129 r2245 bc13772

Audio
Format                         : AAC
Bit rate mode                  : Variable
Bit rate                       : 80.0 Kbps
Channel(s)                     : 2 channels
Channel positions              : Front: L R
Sampling rate                  : 48.0 KHz / 24.0 KHz
Stream size                    : 76.7 MiB (10%)
Language                       : English


Subtitle                       : Yes (English)

Screens: 
http://imgr.us/images/augh645d1mq8gx1kr5m.jpg 
http://imgr.us/images/lifkqznlwudsoeqirt8z.jpg 
http://imgr.us/images/1r0c02a17r6b8hi6062g.jpg 
http://imgr.us/images/oarep0yjlqma7dzsmmh.jpg 
http://imgr.us/images/cmbo7xkyhfxfo8lx2ks.jpg
----------------------------------------------------------------------------------------------------
Encoded using revolutionary 10bit encoding, which enables us to provide you more crispier 
and sharper images at small sizes, just make sure you follow our instructions without a fault.
Recommend to you to use latest version of VLC player. Install K-Lite Codec Pack or shark007 codecs
in case of any kind of problem in playback (For non-VLC Media Player users). Alternatively, install
Core AVC codecs, the fastest decoder that there is coupled with Community Center Codec Pack and play
on Windows Media Player Classic. Check sample to be sure.
Enjoy!

Encoder Notes:Looking For Early Access To Anything You Can Provide DVDScr, R5, DVDR, BluRay, Direct
Audio, Music Releases and Seedboxes. We require dedicated servers, so as to do more 
and fast releases of movies.
If You Got anything to offer please contact us at "prg@hush.com".